<svg width="19" height="18" viewBox="0 0 19 18" fill="none" xmlns="http://www.w3.org/2000/svg">
<path d="M15.8333 10.8331V13.3331H18.3333V14.9997H15.8333V17.4997H14.1667V14.9997H11.6667V13.3331H14.1667V10.8331H15.8333ZM9.16667 9.16639C8.25 9.16639 7.5 9.91639 7.5 10.8331C7.5 11.7497 8.25 12.4997 9.16667 12.4997C10.0833 12.4997 10.8333 11.7497 10.8333 10.8331C10.8333 9.91639 10.0833 9.16639 9.16667 9.16639ZM10.2917 15.8331H3.75C2.98333 15.8331 2.34167 15.3164 2.15 14.6164L0.0333333 6.89139C-3.10441e-08 6.81639 0 6.74139 0 6.66639C0 6.20805 0.375 5.83305 0.833333 5.83305H4.825L8.475 0.374722C8.55015 0.2603 8.65241 0.16622 8.77269 0.100849C8.89297 0.0354777 9.02754 0.000839736 9.16443 1.50781e-05C9.30133 -0.000809579 9.4363 0.0322045 9.55736 0.096122C9.67842 0.16004 9.78181 0.25288 9.85833 0.366388L13.5083 5.83305H17.5C17.9583 5.83305 18.3333 6.20805 18.3333 6.66639L18.3083 6.89139L17.5 9.84139C17.025 9.58306 16.4917 9.36639 15.9333 9.25805L16.4167 7.49972H1.925L3.75 14.1664H10C10 14.7497 10.1083 15.3081 10.2917 15.8331ZM6.83333 5.83305H11.5L9.16667 2.33306L6.83333 5.83305Z" fill="white"/>
</svg>
