<svg width="20" height="20" viewBox="0 0 20 20" fill="none" xmlns="http://www.w3.org/2000/svg">
<path d="M4.60444 17.5C4.22944 17.5 3.89611 17.3853 3.60444 17.1558C3.31278 16.9264 3.11139 16.6314 3.00028 16.2708L0.875277 8.56249C0.805833 8.2986 0.851111 8.05554 1.01111 7.83332C1.17111 7.6111 1.38972 7.49999 1.66694 7.49999H5.62528L9.29194 2.04166C9.36139 1.93055 9.45861 1.84027 9.58361 1.77082C9.70861 1.70138 9.84056 1.66666 9.97944 1.66666C10.1183 1.66666 10.2503 1.70138 10.3753 1.77082C10.5003 1.84027 10.5975 1.93055 10.6669 2.04166L14.3336 7.49999H18.3336C18.6114 7.49999 18.8303 7.6111 18.9903 7.83332C19.1503 8.05554 19.1953 8.2986 19.1253 8.56249L17.0003 16.2708C16.8892 16.6319 16.6878 16.9272 16.3961 17.1567C16.1044 17.3861 15.7711 17.5005 15.3961 17.5H4.60444ZM4.58361 15.8333H15.4169L17.2503 9.16666H2.75028L4.58361 15.8333ZM10.0003 14.1667C10.4586 14.1667 10.8511 14.0033 11.1778 13.6767C11.5044 13.35 11.6675 12.9578 11.6669 12.5C11.6669 12.0417 11.5036 11.6492 11.1769 11.3225C10.8503 10.9958 10.4581 10.8328 10.0003 10.8333C9.54194 10.8333 9.14944 10.9967 8.82278 11.3233C8.49611 11.65 8.33306 12.0422 8.33361 12.5C8.33361 12.9583 8.49694 13.3508 8.82361 13.6775C9.15028 14.0042 9.5425 14.1672 10.0003 14.1667ZM7.64611 7.49999H12.3336L9.97944 3.99999L7.64611 7.49999Z" fill="#111111"/>
</svg>
